<?xml version="1.0" standalone="no"?>
<!DOCTYPE svg PUBLIC "-//W3C//DTD SVG 1.1//EN" "http://www.w3.org/Graphics/SVG/1.1/DTD/svg11.dtd" >
<svg xmlns="http://www.w3.org/2000/svg">
<metadata>Generated by IcoMoon</metadata>
<defs>
<font id="IconPuml" horiz-adv-x="1024">
<font-face units-per-em="1024" ascent="870.4" descent="-153.6" />
<missing-glyph horiz-adv-x="1024" />
<glyph unicode="&#x20;" horiz-adv-x="0" d="" />
<glyph unicode="&#xe900;" glyph-name="map-with-placeholder" d="M832 768c-88.376 0-160-71.626-160-160 0-23.876 5.25-46.562 14.624-66.876l145.376-285.124 145.376 285.126c9.374 20.312 14.624 42.998 14.624 66.874 0 88.374-71.624 160-160 160zM832 512c-53 0-96 43-96 96s43 96 96 96 96-43 96-96-43-96-96-96zM879.876 209.062l58.25-116.438-147.688-73.812-49.5 247.624 9.188 9.188-30.5 60-15.626-15.624-192 128-192-128-128 128-192-384 256-128 256 128 256-128 256 128-108 215.938-36.124-70.876zM233.5 18.812l-147.626 73.812 123.626 247.376 73.562-73.562-49.562-247.626zM480 119.562l-179-89.5 46.25 231.188 132.75 88.5v-230.188zM544 119.562v230.188l132.688-88.5 46.25-231.188-178.938 89.5z" />
<glyph unicode="&#xe901;" glyph-name="map" d="M1024 187.038v330.162c0 7.233-4.758 13.608-11.691 15.665l-152.757 45.322c11.824 28.923 19.195 57.629 19.195 84.282 0 111.124-90.406 201.532-201.532 201.532s-201.532-90.406-201.532-201.532c0-26.652 7.371-55.359 19.195-84.282l-148.107-43.943-325.782 96.666c-4.941 1.462-10.288 0.512-14.421-2.571s-6.567-7.939-6.567-13.096v-330.573c0-0.039 0-0.081 0-0.12v-330.166c0-7.233 4.756-13.608 11.693-15.665l330.183-97.971c0.096-0.028 0.246-0.072 0.246-0.072 0.052-0.015 0.107-0.020 0.159-0.035 0.608-0.174 1.231-0.307 1.867-0.41 0.17-0.028 0.34-0.057 0.512-0.078 0.684-0.089 1.377-0.148 2.083-0.15 0.758 0 1.453 0.061 2.14 0.15 0.17 0.022 0.338 0.050 0.508 0.078 0.636 0.102 1.261 0.237 1.872 0.41 0.052 0.015 0.107 0.020 0.159 0.035l0.15 0.046c0.096 0.028 319.024 94.655 319.024 94.655 2.026-0.9 4.262-1.41 6.621-1.41s4.597 0.51 6.621 1.41l319.174-94.698c1.527-0.453 3.092-0.675 4.649-0.675 3.482 0 6.917 1.113 9.774 3.246 4.131 3.085 6.567 7.939 6.567 13.094v330.565c-0.002 0.044-0.002 0.087-0.002 0.131zM991.319 505.003v-296.341l-297.764 88.347v46.477c21.308 21.942 104.988 111.104 152.24 204.693l145.523-43.176zM677.215 831.319c93.103 0 168.851-75.745 168.851-168.851 0-26.539-8.878-56.098-22.685-86.027-0.684-1.094-1.246-2.281-1.667-3.558-39.374-83.116-115.536-168.306-144.504-199.127-28.951 30.788-105.043 115.86-144.432 198.948-0.442 1.399-1.059 2.695-1.815 3.878-13.756 29.875-22.6 59.379-22.6 85.887 0 93.103 75.748 168.849 168.851 168.849zM660.874 343.488v-46.477l-297.764-88.347v296.339l145.523 43.176c47.254-93.589 130.933-182.751 152.24-204.691zM32.681 262.921l112.897-33.498c1.551-0.46 3.116-0.68 4.654-0.68 7.048 0 13.552 4.595 15.658 11.698 2.569 8.652-2.364 17.746-11.018 20.312l-122.192 36.256v296.341l297.749-88.347v-296.341l-112.895 33.498c-8.65 2.571-17.746-2.364-20.312-11.018-2.569-8.652 2.364-17.746 11.018-20.312l122.192-36.256v-296.341l-297.751 88.347v296.341zM693.555-33.421v118.298c0 9.024-7.314 16.34-16.34 16.34s-16.34-7.316-16.34-16.34v-118.298l-297.764-88.345v296.339l297.764 88.347v-112.681c0-9.024 7.314-16.34 16.34-16.34s16.34 7.316 16.34 16.34v112.681l297.764-88.347v-296.341l-297.764 88.347zM677.215 548.085c63.070 0 114.383 51.311 114.383 114.383 0 63.070-51.313 114.383-114.383 114.383s-114.383-51.311-114.383-114.383c0-63.070 51.313-114.383 114.383-114.383zM677.215 744.17c45.052 0 81.702-36.65 81.702-81.702s-36.65-81.702-81.702-81.702-81.702 36.65-81.702 81.702c0 45.052 36.65 81.702 81.702 81.702z" />
<glyph unicode="&#xe902;" glyph-name="pin" d="M512.1 864c-214.216-0.22-387.786-173.879-387.895-388.095 0-208.421 357.75-612.288 372.923-629.257 7.354-8.215 19.976-8.911 28.191-1.557 0.547 0.489 1.066 1.008 1.557 1.557 15.172 17.169 372.923 420.836 372.923 629.257-0.112 214.139-173.562 387.766-387.698 388.095zM512.1-109.631c-68.276 79.855-347.968 415.046-347.968 585.736 0 192.178 155.79 347.968 347.968 347.968s347.968-155.79 347.968-347.968c0-170.69-279.692-506.28-347.968-585.736zM519.087 669.354c-116.099-0.11-210.128-94.319-210.019-210.418s94.319-210.128 210.418-210.019c116.022 0.11 210.019 94.196 210.019 210.218-0.22 116.087-94.331 210.108-210.418 210.218zM519.087 288.645c-94.049 0-170.291 76.242-170.291 170.291s76.242 170.291 170.291 170.291 170.291-76.242 170.291-170.291c-0.11-94.004-76.289-170.181-170.291-170.291z" />
<glyph unicode="&#xe903;" glyph-name="comment" d="M953.924 231.834c45.875 64.358 70.076 138.735 70.076 215.501 0 220.331-199.049 399.599-443.733 399.599-168.465 0-324.233-87.757-398.404-223.812-110.165-72.789-181.862-190.14-181.862-322.321 0-76.766 24.201-151.125 70.076-215.501-8.704-95.181-31.727-165.751-65.075-199.1-5.188-5.188-6.485-13.124-3.209-19.678 2.901-5.854 8.875-9.455 15.275-9.455 0.785 0 1.57 0.051 2.372 0.171 5.973 0.836 143.923 20.702 244.343 78.268 56.832-22.767 117.333-34.304 179.951-34.304 145.493 0 274.842 63.386 355.806 161.109 94.054-42.428 200.329-57.89 205.005-58.539 0.802-0.119 1.604-0.171 2.389-0.171 6.4 0 12.356 3.601 15.275 9.455 3.277 6.571 1.997 14.507-3.209 19.678-33.348 33.348-56.388 103.919-65.075 199.1zM443.733-64.666c-49.34 0-97.178 7.817-142.746 23.006 56.9 35.669 56.951 38.485 56.917 48.145-0.034 5.956-3.226 11.605-8.329 14.677-7.697 4.642-17.51 2.492-22.665-4.625-8.414-6.588-42.803-28.621-73.421-47.497-63.164-38.11-147.439-59.955-197.12-70.366 30.669 54.153 43.247 130.082 48.265 190.054 0.358 4.113-0.819 8.209-3.26 11.554-43.998 59.648-67.243 128.99-67.243 200.516 0 123.238 68.796 232.346 173.841 298.581 6.554 4.13 13.193 8.107 19.968 11.861 1.604 0.887 3.191 1.809 4.813 2.679 7.134 3.84 14.421 7.424 21.76 10.854 2.697 1.263 5.41 2.509 8.141 3.721 7.509 3.311 15.087 6.468 22.784 9.353 2.679 1.007 5.427 1.911 8.141 2.867 6.076 2.15 12.22 4.164 18.398 6.042 2.833 0.87 5.649 1.775 8.516 2.577 8.021 2.27 16.145 4.284 24.32 6.093 2.85 0.631 5.717 1.195 8.585 1.775 7.356 1.485 14.763 2.799 22.221 3.925 1.724 0.256 3.413 0.58 5.154 0.819 9.011 1.246 18.108 2.15 27.238 2.85 2.372 0.188 4.762 0.341 7.151 0.495 9.472 0.58 18.995 0.99 28.57 0.99 225.843 0 409.6-163.942 409.6-365.466 0-8.243-0.427-16.452-1.041-24.627-0.154-2.133-0.341-4.25-0.546-6.383-0.717-7.561-1.621-15.087-2.85-22.545-0.102-0.631-0.171-1.28-0.273-1.929-1.331-7.799-3.055-15.514-4.949-23.177-0.58-2.355-1.195-4.693-1.826-7.049-1.826-6.758-3.823-13.466-6.076-20.105-0.597-1.741-1.195-3.499-1.826-5.222-2.321-6.502-4.898-12.919-7.629-19.302-1.092-2.543-2.219-5.086-3.362-7.612-3.055-6.673-6.263-13.278-9.779-19.797-1.024-1.894-2.133-3.738-3.191-5.615-3.072-5.461-6.315-10.854-9.694-16.196-1.485-2.338-2.97-4.693-4.523-6.997-4.215-6.298-8.602-12.527-13.261-18.62-73.762-96.683-198.093-160.307-338.773-160.307zM820.804 90.146c0.7 1.024 1.297 2.082 1.98 3.106 3.977 5.871 7.782 11.827 11.418 17.886 2.048 3.413 3.942 6.861 5.871 10.325 2.099 3.738 4.147 7.509 6.11 11.332 1.809 3.516 3.618 7.031 5.325 10.581 2.509 5.257 4.864 10.598 7.134 15.974 1.741 4.13 3.362 8.277 4.949 12.459 1.826 4.779 3.567 9.591 5.188 14.455 1.075 3.26 2.116 6.519 3.106 9.796 1.604 5.308 3.055 10.684 4.42 16.077 0.614 2.458 1.331 4.881 1.894 7.356 1.758 7.646 3.243 15.394 4.506 23.211 0.393 2.423 0.7 4.881 1.041 7.322 0.853 6.059 1.57 12.169 2.116 18.313 0.222 2.475 0.461 4.949 0.631 7.424 0.58 8.294 0.973 16.623 0.973 25.037 0 220.331-199.049 399.599-443.733 399.599-8.175 0-16.299-0.239-24.371-0.631-2.935-0.137-5.837-0.41-8.755-0.597-5.086-0.341-10.155-0.683-15.189-1.178-3.635-0.358-7.236-0.819-10.837-1.246-4.215-0.512-8.431-1.024-12.612-1.638-4.028-0.58-8.021-1.246-12.015-1.946-3.618-0.631-7.219-1.28-10.82-1.997-4.352-0.853-8.687-1.741-12.988-2.714-3.021-0.683-6.025-1.417-9.028-2.167-4.71-1.161-9.421-2.304-14.063-3.601-2.065-0.58-4.096-1.229-6.161-1.826-17.852-5.222-35.328-11.452-52.361-18.705-1.212-0.512-2.441-0.99-3.652-1.519-1.553-0.683-3.14-1.263-4.693-1.963 76.083 95.249 200.721 154.129 334.080 154.129 225.843 0 409.6-163.942 409.6-365.466 0-71.526-23.245-140.868-67.226-200.516-2.458-3.328-3.618-7.441-3.26-11.554 5.018-59.955 17.596-135.868 48.265-190.037-37.325 7.834-94.157 22.153-146.842 44.919zM221.867 369.067c-37.649 0-68.267-30.618-68.267-68.267s30.618-68.267 68.267-68.267 68.267 30.618 68.267 68.267-30.618 68.267-68.267 68.267zM221.867 266.667c-18.825 0-34.133 15.309-34.133 34.133s15.309 34.133 34.133 34.133 34.133-15.309 34.133-34.133c0-18.825-15.309-34.133-34.133-34.133zM443.733 369.067c-37.649 0-68.267-30.618-68.267-68.267s30.618-68.267 68.267-68.267 68.267 30.618 68.267 68.267-30.618 68.267-68.267 68.267zM443.733 266.667c-18.825 0-34.133 15.309-34.133 34.133s15.309 34.133 34.133 34.133 34.133-15.309 34.133-34.133c0-18.825-15.309-34.133-34.133-34.133zM665.6 369.067c-37.649 0-68.267-30.618-68.267-68.267s30.618-68.267 68.267-68.267 68.267 30.618 68.267 68.267-30.618 68.267-68.267 68.267zM665.6 266.667c-18.825 0-34.133 15.309-34.133 34.133s15.309 34.133 34.133 34.133 34.133-15.309 34.133-34.133c0-18.825-15.309-34.133-34.133-34.133z" />
<glyph unicode="&#xe904;" glyph-name="right-arrow" d="M750.936 386.128v0l-477.872 477.872-34.128-34.128 477.871-477.872-477.871-477.872 34.128-34.128 512 512z" />
<glyph unicode="&#xe905;" glyph-name="arrow-down" d="M512-160l-512 1024h1024z" />
<glyph unicode="&#xe906;" glyph-name="arrow-up" d="M512 864l512-1024h-1024z" />
<glyph unicode="&#xe907;" glyph-name="award" d="M384.639 205.887l-32.022-241.093 137.432 82.459c13.512 8.107 30.392 8.107 43.904 0l137.446-82.467-31.991 241.12c-39.367-15.849-82.368-24.572-127.407-24.572-45.021 0-88.007 8.716-127.361 24.554zM304.619 251.533c-81.436 62.382-133.952 160.625-133.952 271.133 0 188.513 152.82 341.333 341.333 341.333s341.333-152.82 341.333-341.333c0-110.487-52.495-208.713-133.904-271.097l48.2-363.292c4.699-35.418-33.611-60.58-64.248-42.198l-191.382 114.829-191.382-114.829c-30.639-18.384-68.952 6.784-64.247 42.204l48.247 363.249zM654.105 309.697c68.673 45.914 113.895 124.16 113.895 212.969 0 141.385-114.615 256-256 256s-256-114.615-256-256c0-141.385 114.615-256 256-256 49.657 0 96.012 14.138 135.259 38.609 2.12 1.678 4.41 3.162 6.846 4.421z" />
<glyph unicode="&#xe908;" glyph-name="clear" d="M496.019 366.082l-329.126 329.126 53.099 53.099 329.126-329.126 371.693 371.693 49.369-49.369-371.693-371.693 345.582-345.582-53.099-53.099-345.582 345.582-371.693-371.693-49.369 49.369z" />
<glyph unicode="&#xe909;" glyph-name="email" d="M914.286 766.476h-804.571c-60.594 0-109.714-50.609-109.714-113.039v-602.874c0-62.43 49.121-113.039 109.714-113.039h804.571c60.594 0 109.714 50.609 109.714 113.039v602.874c0 62.43-49.121 113.039-109.714 113.039zM860.16 691.117l-348.16-254.714-343.771 254.714h691.931zM950.857 50.563c0-20.81-16.374-37.68-36.571-37.68h-804.571c-20.198 0-36.571 16.87-36.571 37.68v602.874c-1.027 4.46-1.027 9.105 0 13.565l438.857-324.045 438.857 321.031c0.69-3.481 0.69-7.069 0-10.55v-602.874z" />
<glyph unicode="&#xe90a;" glyph-name="facebook" d="M644.96 523.008l-48.192-0.032c-37.792 0-45.12-17.952-45.12-44.288v-58.112h90.144l-11.744-91.040h-78.4v-233.536h-93.984v233.536h-78.592v91.040h78.592v67.104c0 77.92 47.584 120.32 117.056 120.32 33.28 0 61.888-2.464 70.24-3.584v-81.408zM512 864c-282.752 0-512-229.216-512-512 0-282.752 229.248-512 512-512 282.784 0 512 229.248 512 512 0 282.784-229.216 512-512 512v0z" />
<glyph unicode="&#xe90b;" glyph-name="globe" d="M95.648 305.455c19.227-173.935 144.944-315.774 310.509-358.877-70.792 106.459-113.785 229.65-124.431 358.877h-186.078zM95.648 398.545h185.957c10.436 128.614 53.481 252.071 124.538 358.873-165.558-43.108-291.268-184.944-310.494-358.873zM928.352 398.545c-19.227 173.935-144.944 315.774-310.509 358.877 70.792-106.459 113.785-229.65 124.431-358.877h186.078zM928.352 305.455h-185.957c-10.436-128.614-53.481-252.071-124.538-358.873 165.558 43.108 291.268 184.944 310.494 358.873zM374.913 398.545h274.043c-11.692 126.286-59.24 246.602-136.957 346.728-78.009-100.485-125.622-221.178-137.086-346.728zM649.087 305.455h-274.043c11.692-126.286 59.24-246.602 136.957-346.728 78.009 100.485 125.622 221.178 137.086 346.728zM512-160c-282.77 0-512 229.23-512 512s229.23 512 512 512c282.77 0 512-229.23 512-512s-229.23-512-512-512z" />
<glyph unicode="&#xe90c;" glyph-name="google-plus" d="M445.018 564.704c-10.208 7.104-21.92 10.88-35.168 11.296-17.536-0.416-32.128-7.232-43.744-20.448-9.824-13.856-14.496-29.312-14.080-46.4 0-22.592 6.848-46.080 20.544-70.496 6.624-11.392 15.2-21.056 25.664-28.992 10.496-7.936 22.496-11.904 35.968-11.904 17.024 0.608 31.232 6.496 42.592 17.696 5.472 7.936 8.992 16.064 10.56 24.416 0.928 8.352 1.408 15.36 1.408 21.056 0 24.64-6.528 49.44-19.584 74.464-6.112 12.032-14.176 21.792-24.16 29.312zM440.864 287.843c-3.296 0.416-11.744 0-25.344-1.216-13.408-1.824-27.104-4.768-41.12-8.832-3.296-1.216-7.936-3.040-13.888-5.504-5.984-2.624-12.064-6.368-18.24-11.264-5.984-5.056-11.008-11.36-15.136-18.88-4.736-7.904-7.136-17.472-7.136-28.64 0-21.92 10.304-40 30.912-54.208 19.584-14.24 46.368-21.536 80.384-21.952 30.496 0.416 53.76 6.912 69.824 19.488 15.68 12.416 23.488 28.352 23.488 47.84 0 15.84-5.344 29.664-16.064 41.44-11.328 11.168-29.056 24.864-53.152 41.12-4.128 0.416-8.96 0.608-14.528 0.608zM768 333.728h-73.152v-73.152h-36.544v73.152h-73.152v36.576h73.152v73.152h36.544v-73.152h73.152v-36.576zM504.256 556.544c4.864-4.864 9.632-10.848 14.304-17.952 4.48-6.72 8.448-14.624 11.904-23.776 2.848-9.12 4.256-19.776 4.256-31.968-0.384-22.336-5.472-40.192-15.328-53.6-4.832-6.496-9.92-12.48-15.328-17.984-5.984-5.472-12.32-11.072-19.072-16.736-3.872-3.872-7.424-8.224-10.72-13.12-3.84-5.056-5.76-10.944-5.76-17.664 0-6.496 1.952-11.872 5.92-16.128 3.36-4.064 6.624-7.616 9.792-10.656l21.952-17.376c13.632-10.752 25.6-22.624 35.904-35.616 9.696-13.216 14.72-30.464 15.136-51.808 0-30.24-13.856-57.056-41.536-80.384-28.736-24.16-70.176-36.672-124.32-37.472-45.312 0.416-79.168 9.728-101.504 27.968-22.56 17.024-33.856 37.408-33.856 61.12 0 11.552 3.68 24.416 11.008 38.592 7.136 14.208 20 26.656 38.688 37.408 20.96 11.552 42.976 19.232 66.048 23.104 22.816 3.232 41.792 5.056 56.896 5.472-4.672 5.92-8.832 12.224-12.48 18.976-4.256 6.528-6.368 14.4-6.368 23.584 0 5.504 0.8 10.112 2.432 13.792 1.408 3.872 2.72 7.424 3.936 10.688-7.328-0.8-14.272-1.216-20.768-1.216-34.464 0.416-60.704 10.88-78.784 31.392-18.912 19.072-28.352 41.312-28.352 66.688 0 30.656 13.408 58.464 40.192 83.456 18.368 14.592 37.504 24.16 57.344 28.608 19.616 3.872 38.016 5.792 55.2 5.792h129.408l-39.968-22.496h-39.904c4.064-2.464 8.64-6.016 13.728-10.688v0zM512 864c-282.784 0-512-229.216-512-512 0-282.752 229.216-512 512-512s512 229.248 512 512c0 282.784-229.216 512-512 512v0z" />
<glyph unicode="&#xe90d;" glyph-name="left-arrow" d="M306.871 352.009l455.216 475.924c8.126 8.52 7.834 22.020-0.666 30.167-8.458 8.146-21.958 7.792-30.167-0.666l-469.342-490.675c-7.874-8.25-7.874-21.25 0-29.501l469.342-490.677c4.208-4.376 9.792-6.584 15.416-6.584 5.292 0 10.626 1.958 14.75 5.916 8.5 8.146 8.792 21.646 0.666 30.167l-455.216 475.928z" />
<glyph unicode="&#xe90e;" glyph-name="instagram" d="M514.464 251.552c54.368 0 98.464 43.968 98.464 98.24 0 54.24-44.096 98.208-98.464 98.208s-98.464-43.968-98.464-98.208c0-54.272 44.096-98.24 98.464-98.24zM654.336 446.368h69.216c7.904 0 14.336 6.4 14.336 14.272v69.088c0 7.872-6.432 14.272-14.336 14.272h-69.216c-7.904 0-14.336-6.4-14.336-14.272v-69.088c0-7.872 6.432-14.272 14.336-14.272zM768 156.736c0-33.536-27.232-60.736-60.864-60.736h-390.272c-33.6 0-60.864 27.2-60.864 60.736v390.56c0 33.536 27.264 60.704 60.864 60.704h390.272c33.632 0 60.864-27.168 60.864-60.704v-390.56zM512 864c-282.784 0-512-229.216-512-512 0-282.752 229.216-512 512-512s512 229.248 512 512c0 282.784-229.216 512-512 512v0zM673.856 342.912c0-85.664-69.856-155.392-155.744-155.392s-155.744 69.728-155.744 155.392c0 14.208 1.92 28 5.536 41.088h-47.904v-222.656c0-7.904 6.4-14.304 14.304-14.304h367.584c7.936 0 14.336 6.4 14.336 14.304v222.656h-47.904c3.616-13.088 5.536-26.88 5.536-41.088z" />
<glyph unicode="&#xe90f;" glyph-name="lock" d="M136.533 378.947v-538.947h750.933v538.947h-750.933zM243.81 378.947h107.276v217.441c0 105.927 53.638 159.822 160.914 159.822s160.914-53.895 160.914-161.684h107.276c0 148.826-120.073 269.474-268.19 269.474s-268.19-120.647-268.19-269.474v-215.579zM672.914 378.947v217.441c0-3.296 107.276-1.27 107.276-1.862v-215.579h-107.276z" />
<glyph unicode="&#xe910;" glyph-name="menu" d="M25.6 608v102.4h972.8v-102.4zM25.6-6.4v102.4h972.8v-102.4zM25.6 300.8v102.4h972.8v-102.4z" />
<glyph unicode="&#xe911;" glyph-name="printerest" d="M551.488 237.984c-31.744 0-61.632 17.152-71.84 36.672 0 0-17.088-67.776-20.672-80.864-12.736-46.208-50.208-92.448-53.12-96.224-2.016-2.656-6.496-1.824-6.976 1.664-0.8 5.888-10.368 64.224 0.896 111.776 5.632 23.872 37.824 160.256 37.824 160.256s-9.376 18.784-9.376 46.528c0 43.584 25.248 76.128 56.704 76.128 26.752 0 39.648-20.096 39.648-44.16 0-26.88-17.12-67.104-25.952-104.352-7.392-31.2 15.648-56.64 46.432-56.64 55.68 0 93.216 71.552 93.216 156.352 0 64.448-43.392 112.704-122.368 112.704-89.184 0-144.8-66.528-144.8-140.864 0-25.6 7.584-43.68 19.424-57.664 5.44-6.432 6.208-9.024 4.224-16.384-1.44-5.44-4.64-18.432-6.016-23.616-1.952-7.456-7.968-10.112-14.72-7.36-41.056 16.768-60.224 61.792-60.224 112.352 0 83.552 70.464 183.712 210.176 183.712 112.32 0 186.208-81.216 186.208-168.48 0-115.36-64.16-201.536-158.688-201.536zM512 864c-282.784 0-512-229.216-512-512 0-282.752 229.216-512 512-512 282.752 0 512 229.248 512 512 0 282.784-229.248 512-512 512z" />
<glyph unicode="&#xe912;" glyph-name="search" d="M166.936 521.91c51.367 176.141 236.433 277.721 412.574 226.354 176.141-51.306 277.721-236.433 226.354-412.574s-236.433-277.721-412.574-226.354c-176.141 51.367-277.721 236.433-226.354 412.574zM68.837 548.607c-67.937-231.821 66.406-475.409 299.534-542.965 125.454-36.354 254.027-14.050 356.933 50.052l140.878-191.486c7.948-10.889 19.133-18.323 31.201-21.836 16.896-4.917 35.735-2.283 50.982 8.781 26.374 18.909 32.32 55.555 13.305 81.723l-145.646 197.867c44.33 47.945 78.887 106.134 98.373 172.753 67.937 231.821-66.406 475.409-299.593 542.965-233.069 67.556-478.030-66.034-545.967-297.855z" />
<glyph unicode="&#xe913;" glyph-name="shopping-cart" d="M408.917 95.998c-56.464-0.376-101.967-46.388-101.716-102.852s46.16-102.070 102.625-101.945c56.465 0.125 102.173 45.933 102.174 102.397 0.001 27.277-10.882 53.427-30.233 72.65s-45.573 29.932-72.849 29.75v0zM408.917-40.536c-18.851 0-34.133 15.282-34.133 34.133s15.282 34.133 34.133 34.133c18.851 0 34.133-15.282 34.133-34.133s-15.282-34.133-34.133-34.133zM716.117 95.998c-56.464-0.376-101.967-46.388-101.716-102.852s46.16-102.070 102.625-101.945c56.465 0.125 102.173 45.933 102.174 102.397 0.001 27.277-10.882 53.427-30.233 72.65s-45.573 29.932-72.849 29.75v0zM716.117-40.536c-18.851 0-34.133 15.282-34.133 34.133s15.282 34.133 34.133 34.133c18.851 0 34.133-15.282 34.133-34.133s-15.282-34.133-34.133-34.133zM196.533 707.037l-20.306 105.763h-139.966c-20.026 0-36.261-15.784-36.261-35.254s16.234-35.254 36.261-35.254h79.773l113.858-595.092h580.17c20.026 0 36.261 15.784 36.261 35.254s-16.234 35.254-36.261 35.254h-519.977l-12.329 66.278h609.904c35.693-0.505 66.456 24.32 72.521 58.522l63.819 364.529h-827.467zM887.66 354.495h-623.683l-50.765 282.034h725.212l-50.765-282.034z" />
<glyph unicode="&#xe914;" glyph-name="ticket" d="M877.714 115.342h-536.137c-31.652 0-62.45 10.22-87.771 29.127l-195.291 145.636c-36.836 27.504-58.514 70.669-58.514 116.508v145.636c0 45.84 21.679 89.005 58.514 116.508l195.291 145.636c25.465 18.633 56.17 28.822 87.771 29.127h536.137c80.791 0 146.286-65.203 146.286-145.636v-436.907c0-80.432-65.494-145.636-146.286-145.636zM341.577 770.702c-15.826 0-31.225-5.11-43.886-14.564l-195.291-145.636c-18.418-13.752-29.257-35.334-29.257-58.254v-145.636c0-22.92 10.839-44.502 29.257-58.254l195.291-145.636c12.661-9.453 28.060-14.564 43.886-14.564h536.137c40.396 0 73.143 32.602 73.143 72.818v436.907c0 40.216-32.747 72.818-73.143 72.818h-536.137zM365.714 333.796c-80.791 0-146.286 65.203-146.286 145.636s65.494 145.636 146.286 145.636c80.791 0 146.286-65.203 146.286-145.636s-65.494-145.636-146.286-145.636zM365.714 552.249c-40.396 0-73.143-32.602-73.143-72.818s32.747-72.818 73.143-72.818c40.396 0 73.143 32.602 73.143 72.818s-32.747 72.818-73.143 72.818zM836.496 42.524l-49.503-107.303-218.519 107.303h-166.188l353.591-174.644c9.791-4.631 20.374-7.148 31.116-7.4 27.202 0.081 51.949 16.481 63.646 42.181l63.646 139.863h-77.79z" />
<glyph unicode="&#xe915;" glyph-name="twitter" d="M715.584 456.416c0.192-4.512 0.32-9.024 0.32-13.6 0-138.784-105.664-298.848-298.88-298.848-59.328 0-114.528 17.376-161.024 47.168 8.224-0.96 16.576-1.44 25.056-1.44 49.216 0 94.496 16.768 130.464 44.96-45.984 0.832-84.768 31.2-98.144 72.928 6.432-1.216 12.992-1.856 19.776-1.856 9.568 0 18.848 1.28 27.68 3.68-48.064 9.632-84.256 52.096-84.256 102.976v1.344c14.144-7.872 30.368-12.608 47.584-13.152-28.192 18.848-46.752 51.008-46.752 87.424 0 19.264 5.184 37.312 14.24 52.832 51.808-63.552 129.216-105.376 216.512-109.76-1.792 7.68-2.72 15.712-2.72 23.936 0 58.016 47.040 105.056 105.024 105.056 30.24 0 57.536-12.768 76.672-33.184 23.936 4.704 46.432 13.44 66.72 25.472-7.84-24.512-24.512-45.088-46.176-58.112 21.248 2.56 41.472 8.192 60.32 16.544-14.080-21.056-31.904-39.552-52.416-54.368zM512 864c-282.784 0-512-229.216-512-512 0-282.752 229.216-512 512-512s512 229.248 512 512c0 282.784-229.216 512-512 512z" />
<glyph unicode="&#xe916;" glyph-name="youtube" d="M768 332.672c0-41.44-5.12-82.88-5.12-82.88s-4.992-35.264-20.352-50.816c-19.456-20.384-41.28-20.48-51.296-21.664-71.648-5.184-179.232-5.344-179.232-5.344s-133.12 1.216-174.080 5.12c-11.392 2.144-36.992 1.504-56.448 21.888-15.36 15.552-20.352 50.816-20.352 50.816s-5.12 41.44-5.12 82.88v38.848c0 41.44 5.12 82.848 5.12 82.848s4.992 35.296 20.352 50.848c19.456 20.384 41.28 20.48 51.296 21.664 71.648 5.184 179.136 5.184 179.136 5.184h0.192c0 0 107.488 0 179.136-5.184 10.016-1.184 31.84-1.28 51.296-21.664 15.36-15.552 20.352-50.848 20.352-50.848s5.12-41.408 5.12-82.848v-38.848zM512 864c-282.784 0-512-229.216-512-512 0-282.752 229.216-512 512-512s512 229.248 512 512c0 282.784-229.216 512-512 512v0zM448.032 304.128l138.336 71.68-138.368 72.192z" />
<glyph unicode="&#xe947;" glyph-name="location" d="M512 896c-176.732 0-320-143.268-320-320 0-320 320-704 320-704s320 384 320 704c0 176.732-143.27 320-320 320zM512 384c-106.040 0-192 85.96-192 192s85.96 192 192 192 192-85.96 192-192-85.96-192-192-192z" />
<glyph unicode="&#xe948;" glyph-name="pin-black" d="M512 896c-176.732 0-320-143.268-320-320 0-320 320-704 320-704s320 384 320 704c0 176.732-143.27 320-320 320zM512 380c-108.248 0-196 87.752-196 196s87.752 196 196 196 196-87.752 196-196-87.752-196-196-196zM388 576c0 68.483 55.517 124 124 124s124-55.517 124-124c0-68.483-55.517-124-124-124s-124 55.517-124 124z" />
<glyph unicode="&#xe949;" glyph-name="compass" d="M544.010-128.004c-2.296 0-4.622 0.25-6.94 0.764-14.648 3.25-25.070 16.238-25.070 31.24v480h-480c-15.002 0-27.992 10.422-31.24 25.070-3.25 14.646 4.114 29.584 17.708 35.928l960 448c12.196 5.688 26.644 3.144 36.16-6.372 9.516-9.514 12.060-23.966 6.372-36.16l-448-960c-5.342-11.44-16.772-18.47-28.99-18.47zM176.242 448h367.758c17.674 0 32-14.328 32-32v-367.758l349.79 749.546-749.548-349.788z" />
</font>
</defs>
</svg>
